# xmcd
#
# Track frame offsets: 
#        150
#        12113
#        20041
#        32027
#        44754
#        56528
#        68322
#        79348
#        89872
#        102187
#        116725
#        128099
#        138084
#        152148
#        163382
#        177530
#        189701
#        198331
#        211304
#        225664
#        234368
#        244562
#        258190
#        271287
#        287460
#
# Disc length: 4038 seconds
#
# Revision: 0
# Processed by: cddbd v1.5.1PL0 Copyright (c) Steve Scherf et al.
# Submitted via: ExactAudioCopy v0.95a5
#
DISCID=600fc419
DTITLE=Vsi Najboljsi Muzikanti - 50 zlatih viz - CD 1
DYEAR=2004
DGENRE=Country
TTITLE0=Tam dol na ravnem polju - trio A. Stanka
TTITLE1=Na planincah soncece sije - Vaski kvintet
TTITLE2=Zvezde zarijo - Beneski fantje
TTITLE3=Rdeci cvet - Beneski fantje
TTITLE4=Na Golici - Avseniki
TTITLE5=Tam, kjer murke cveto - Avseniki
TTITLE6=Na Robleku - Avseniki
TTITLE7=Cujte me, cujte - Avseniki
TTITLE8=Prelepa Gorenjska - Avseniki
TTITLE9=Moj fantic je prijezdil - Veseli plansarji
TTITLE10=Piha, piha - Veseli plansarji
TTITLE11=Pet parov cokel - Veseli plansarji
TTITLE12=Vandrovcek - Zadovoljni Kranjci
TTITLE13=Na paure - Stirje kovaci
TTITLE14=Pridi zvecer - Stirje kovaci
TTITLE15=Studencek - ans. R. Bardorferja
TTITLE16=Sumijo gozdovi domaci - Dobri znanci
TTITLE17=Dekle s planin - Zadovoljni Kranjci
TTITLE18=Smentana rec - ans. B. Franka
TTITLE19=Sorsko polje - Zodovoljni Kranjci
TTITLE20=Veselo v Kamnik - trio A. Blumauerja
TTITLE21=Veseli Ribncan - trio A. Blumauerja
TTITLE22=Moravska dolina - ans. M. Dovzana
TTITLE23=Srne - ans. M. Dovzana
TTITLE24=Savinjska dolina - ans. F Bergerja
EXTD=
EXTT0=
EXTT1=
EXTT2=
EXTT3=
EXTT4=
EXTT5=
EXTT6=
EXTT7=
EXTT8=
EXTT9=
EXTT10=
EXTT11=
EXTT12=
EXTT13=
EXTT14=
EXTT15=
EXTT16=
EXTT17=
EXTT18=
EXTT19=
EXTT20=
EXTT21=
EXTT22=
EXTT23=
EXTT24=
PLAYORDER=
